<svg xmlns="http://www.w3.org/2000/svg" viewBox="0 0 256 257"><defs><linearGradient id="a" x1="-.8%" x2="57.6%" y1="7.7%" y2="78.4%"><stop offset="0%" stop-color="#41D1FF"/><stop offset="100%" stop-color="#BD34FE"/></linearGradient><linearGradient id="b" x1="43.4%" x2="50.3%" y1="2.2%" y2="89%"><stop offset="0%" stop-color="#FFEA83"/><stop offset="8.3%" stop-color="#FFDD35"/><stop offset="100%" stop-color="#FFA800"/></linearGradient></defs><path fill="url(#a)" d="m255 38-120 215c-2 5-9 5-11 0L1 38c-3-5 1-11 7-10l120 22 118-22c5-1 10 5 7 10z"/><path fill="url(#b)" d="M185 0 96 18a3 3 0 0 0-3 3l-5 92a3 3 0 0 0 4 3l25-6c2 0 4 2 4 4l-7 36c0 2 2 5 4 4l15-5c3-1 5 1 5 4l-12 70c0 5 5 7 7 3l43-65c2-2 5-2 6 1l15 52c1 3 4 4 6 1l42-64c1-2 4-2 6 0l20 51c1 3 6 4 7 0l32-60c1-3-1-6-4-5l-26 5c-2 0-4-1-4-4l13-69c1-3-2-5-4-4l-26 5a4 4 0 0 1-5-3l-8-54c0-3-4-4-6-1L187 52c-2 2-4 1-5-1L168 7c-1-3-4-3-6-1l-37 45a4 4 0 0 1-5 1l-26-9c-3-1-5 1-5 4l9 48c0 3-3 5-5 4l-26-9c-3-1-5 2-4 5l21 63c1 3-1 5-4 5l-27-5c-3 0-5 3-3 5l47 66c2 2 5 2 6-1l29-60c1-2 4-3 6 0l25 43c1 2 5 2 6 0l54-82c2-2 5-2 6 1l27 43c1 2 5 2 6 0l30-53c1-2 0-5-3-5l-32 0c-3 0-4-3-3-5l18-29c1-2 0-5-3-5l-47-2c-3 0-4-3-3-5L185 0z"/></svg>
